<svg width="24" height="24" viewBox="0 0 24 24" fill="none" xmlns="http://www.w3.org/2000/svg">
<path d="M11.9981 4.52723L12.0156 4.51156C12.3242 4.23732 12.6543 4.00039 13 3.80078V6.31474L11.9981 7.21215L10.6637 6.01703C9.09446 4.61151 6.68001 4.66275 5.17056 6.17088C3.67592 7.66682 3.61155 10.0535 4.9786 11.6232L11.9981 18.6526L18.6413 12H21.1953C20.9936 12.3489 20.7539 12.682 20.4761 12.993L11.9981 21.483L3.52003 12.993C1.41603 10.637 1.49503 7.01898 3.75603 4.75698C6.01482 2.49919 9.62418 2.41741 11.9806 4.51166L11.9981 4.52723Z" fill="#B2B6CA"/>
<path d="M23 5.00001L20 5.00001L20.0161 2L18 2V5.00001H15V7.00001H17.999L18 10H20L19.999 7.00001H23V5.00001Z" fill="#B2B6CA"/>
</svg>
