<svg width="16" height="16" viewBox="0 0 16 16" fill="none" xmlns="http://www.w3.org/2000/svg">
<path d="M12.9174 8.27722L5.85137 12.9879C5.80118 13.0213 5.74286 13.0404 5.68263 13.0433C5.62241 13.0462 5.56253 13.0327 5.50937 13.0042C5.45622 12.9758 5.41178 12.9334 5.38078 12.8817C5.34979 12.83 5.33341 12.7708 5.33337 12.7105V3.28922C5.33341 3.22892 5.34979 3.16976 5.38078 3.11804C5.41178 3.06633 5.45622 3.02398 5.50937 2.99552C5.56253 2.96706 5.62241 2.95355 5.68263 2.95644C5.74286 2.95932 5.80118 2.97848 5.85137 3.01188L12.9174 7.72255C12.963 7.75299 13.0005 7.79423 13.0263 7.84261C13.0522 7.89099 13.0658 7.94501 13.0658 7.99988C13.0658 8.05475 13.0522 8.10878 13.0263 8.15715C13.0005 8.20553 12.963 8.24677 12.9174 8.27722V8.27722Z" fill="currentColor"/>
</svg>
